# AST/ASF file generated using VICON BodyLanguage
# -----------------------------------------------
:version 1.10
:name VICON
:units
  mass 1.0
  length 0.45
  angle deg
:documentation
   .ast/.asf automatically generated from VICON data using
   VICON BodyBuilder and BodyLanguage model FoxedUp or BRILLIANT.MOD
:root
   order TX TY TZ RX RY RZ
   axis XYZ
   position 0 0 0  
   orientation 0 0 0 
:bonedata
  begin
     id 1 
     name lhipjoint
     direction 0.576517 -0.752066 0.319413 
     length 2.45433 
     axis 0 0 0  XYZ
  end
  begin
     id 2 
     name lfemur
     direction 0.34202 -0.939693 0  
     length 7.54459  
     axis 0 0 20  XYZ
    dof rx ry rz
    limits (-160.0 20.0)
           (-70.0 70.0)
           (-60.0 70.0)
  end
  begin
     id 3 
     name ltibia
     direction 0.34202 -0.939693 0   
     length 7.73986   
     axis 0 0 20   XYZ
    dof rx
    limits (-10.0 170.0)
  end
  begin
     id 4 
     name lfoot
     direction 0.090693 -0.249177 0.964202   
     length 2.28437   
     axis -90 7.62852e-016 20   XYZ
    dof rx rz
    limits (-45.0 90.0)
           (-70.0 20.0)
  end
  begin
     id 5 
     name ltoes
     direction 1.5356e-011 -4.21928e-011 1   
     length 1.14243   
     axis -90 7.62852e-016 20   XYZ
    dof rx
    limits (-90.0 20.0)
  end
  begin
     id 6 
     name rhipjoint
     direction -0.573937 -0.753736 0.320122   
     length 2.44889  
     axis 0 0 0  XYZ 
  end
  begin
     id 7 
     name rfemur
     direction -0.34202 -0.939693 0   
     length 7.50166   
     axis 0 0 -20   XYZ
    dof rx ry rz
    limits (-160.0 20.0)
           (-70.0 70.0)
           (-70.0 60.0)
  end
  begin
     id 8 
     name rtibia
     direction -0.34202 -0.939693 0   
     length 7.54266   
     axis 0 0 -20   XYZ
    dof rx
    limits (-10.0 170.0)
 end
 begin
     id 9 
     name rfoot
     direction -0.114017 -0.31326 0.942798   
     length 2.34212  
     axis -90 -7.62852e-016 -20   XYZ
    dof rx rz
    limits (-45.0 90.0)
           (-20.0 70.0)
  end
  begin
     id 10 
     name rtoes
     direction -1.53557e-011 -4.21867e-011 1   
     length 1.16246   
     axis -90 -7.62852e-016 -20   XYZ
    dof rx
    limits (-90.0 20.0)
  end
  begin
     id 11 
     name lowerback
     direction -0.0228371 0.999155 -0.034167   
     length 2.0537   
     axis 0 0 0   XYZ
    dof rx ry rz
    limits (-20.0 45.0)
           (-30.0 30.0)
           (-30.0 30.0)
  end
  begin
     id 12 
     name upperback
     direction 0.0198981 0.999794 0.00389455   
     length 2.05302   
     axis 0 0 0   XYZ
    dof rx ry rz
    limits (-20.0 45.0)
           (-30.0 30.0)
           (-30.0 30.0)
  end
  begin
     id 13 
     name thorax
     direction 0.0304566 0.99935 0.0192987   
     length 2.05315   
     axis 0 0 0   XYZ
    dof rx ry rz
    limits (-20.0 45.0)
           (-30.0 30.0)
           (-30.0 30.0)
  end
  begin
     id 14 
     name lowerneck
     direction -0.0196762 0.99417 0.106017   
     length 1.82056   
     axis 0 0 0   XYZ
    dof rx ry rz
    limits (-20.0 45.0)
           (-30.0 30.0)
           (-30.0 30.0)
  end
  begin
     id 15 
     name upperneck
     direction 0.00517787 0.9802 -0.197944   
     length 1.83835   
     axis 0 0 0   XYZ
    dof rx ry rz
    limits (-20.0 45.0)
           (-30.0 30.0)
           (-30.0 30.0)
  end
  begin
     id 16
     name head
     direction 0.00211419 0.996945 -0.078081  
     length 1.85629  
     axis 0 0 0   XYZ
    dof rx ry rz
    limits (-20.0 45.0)
           (-30.0 30.0)
           (-30.0 30.0)
  end
  begin
     id 17 
     name lclavicle
     direction 0.930001 0.365811 -0.0357824  
     length 3.81961  
     axis 0 0 0   XYZ
    dof ry rz
    limits (-20.0 10.0)
           (0.0 20.0)
  end
  begin
     id 18 
     name lhumerus
     direction 1 -4.48968e-011 -3.06644e-027   
     length 5.14507   
     axis 180 -30 -90   XYZ
    dof rx ry rz
    limits (-60.0 90.0)
           (-90.0 90.0)
           (-90.0 90.0)
  end
  begin
     id 19
     name lradius
     direction 1 -4.48965e-011 9.06925e-028   
     length 3.50646   
     axis 180 -30 -90   XYZ
    dof rx
    limits (-10.0 170.0)
  end
  begin
     id 20
     name lwrist
     direction 1 -4.48957e-011 1.03922e-027   
     length 1.75323   
     axis -2.56395e-016 90 90   XYZ
    dof ry
    limits (-180.0 0.0)
 end
  begin
     id 21 
     name lhand
     direction 1 -4.48967e-011 2.08017e-027   
     length 0.629969   
     axis -1.32723e-015 90 90   XYZ
    dof rx rz
    limits (-90.0 90.0)
           (-45.0 45.0)
  end
  begin
     id 22 
     name lfingers
     direction 1 -4.49089e-011 4.20095e-027   
     length 0.507897   
     axis -2.6545e-015 90 90   XYZ
    dof rx
    limits (0.0 90.0)
  end
  begin
     id 23
     name lthumb
     direction 0.707107 -6.35001e-011 0.707107   
     length 0.729241   
     axis -90 45 5.05613e-014   XYZ
    dof rx rz
    limits (-45.0 45.0)
           (-45.0 45.0)
  end
  begin
     id 24 
     name rclavicle
     direction -0.881882 0.464123 -0.0829113   
     length 3.47515  
     axis 0 0 0   XYZ 
    dof ry rz
    limits (-10.0 20.0)
           (-20.0 0.0)
  end
  begin
     id 25 
     name rhumerus
     direction -1 -4.48961e-011 -1.55672e-027  
     length 5.232   
     axis 180 30 90   XYZ
    dof rx ry rz
    limits (-90.0 60.0)
           (-90.0 90.0)
           (-90.0 90.0)
  end
  begin
     id 26 
     name rradius
     direction -1 -4.48963e-011 6.18178e-029   
     length 3.65641   
     axis 180 30 90   XYZ
    dof rx
    limits (-10.0 170.0)
  end
  begin
     id 27 
     name rwrist
     direction -1 -4.48982e-011 1.04136e-027   
     length 1.8282   
     axis -2.56395e-016 -90 -90   XYZ
    dof ry
    limits (-180.0 0.0)
  end
  begin
     id 28
     name rhand
     direction -1 -4.48929e-011 2.07378e-027   
     length 0.656807   
     axis -1.32723e-015 -90 -90   XYZ
    dof rx rz
    limits (-90.0 90.0)
           (-45.0 45.0)
  end
  begin
     id 29
     name rfingers
     direction -1 -4.489e-011 4.13816e-027   
     length 0.529535   
     axis -2.6545e-015 -90 -90   XYZ
    dof rx
    limits (0.0 90.0)
  end
  begin
     id 30
     name rthumb
     direction -0.707107 -6.34843e-011 0.707107   
     length 0.760309   
     axis -90 -45 -5.05613e-014   XYZ
    dof rx rz
    limits (-45.0 45.0)
           (-45.0 45.0)
  end
:hierarchy
  begin
    root lhipjoint rhipjoint lowerback
    lhipjoint lfemur
    lfemur ltibia
    ltibia lfoot
    lfoot ltoes
    rhipjoint rfemur
    rfemur rtibia
    rtibia rfoot
    rfoot rtoes
    lowerback upperback
    upperback thorax
    thorax lowerneck lclavicle rclavicle
    lowerneck upperneck
    upperneck head
    lclavicle lhumerus
    lhumerus lradius
    lradius lwrist
    lwrist lhand lthumb
    lhand lfingers
    rclavicle rhumerus
    rhumerus rradius
    rradius rwrist
    rwrist rhand rthumb
    rhand rfingers
  end

#!OML:ASF H:\ManfredETheater\Project 1\Capture day 1\Session 1\subject.ASF
:FULLY-SPECIFIED
:DEGREES
1
root -11.894 15.7435 40.8573 -154.831 -4.92429 -176.662
lowerback 15.9604 0.610456 6.99624
upperback 0.132121 2.06179 2.4899
thorax -8.68168 0.636034 -1.72938
lowerneck -17.6169 -4.95114 -4.12741
upperneck -2.39074 -6.55685 3.25103
head 2.54142 -3.42661 1.27716
rclavicle 1.90833e-014 -1.82882e-014
rhumerus -36.7204 17.4237 -89.0605
rradius 109.12
rwrist -6.75053
rhand -21.9815 7.67637
rfingers 7.12502
rthumb 4.42661 -22.2574
lclavicle 1.90833e-014 -1.82882e-014
lhumerus -73.7702 -5.77767 94.462
lradius 103.187
lwrist 14.6093
lhand -17.0698 -8.30579
lfingers 7.12502
lthumb 9.16795 21.4749
rfemur 6.58939 2.77487 29.192
rtibia 32.1581
rfoot 32.7494 -3.50035
rtoes -24.3915
lfemur -78.6329 7.11839 -21.6402
ltibia 73.2137
lfoot -10.6976 -16.534
ltoes -11.9742
2
root -11.879 15.7648 40.3667 -155.244 -5.28785 -176.7
lowerback 16.3193 0.536575 6.79787
upperback 0.322392 1.93766 2.6021
thorax -8.69437 0.581742 -1.47363
lowerneck -17.6825 -4.95876 -4.16635
upperneck -2.7317 -6.59374 3.30224
head 2.43916 -3.46035 1.29969
rclavicle -3.97569e-015 -2.38542e-015
rhumerus -37.6161 15.9303 -89.3144
rradius 105.524
rwrist -6.84695
rhand -21.8358 6.8394
rfingers 7.12502
rthumb 4.56729 -23.0914
lclavicle -3.97569e-015 -2.38542e-015
lhumerus -71.3006 -5.75948 95.2375
lradius 102.289
lwrist 14.9334
lhand -18.0322 -8.39495
lfingers 7.12502
lthumb 8.23921 21.4244
rfemur 3.78673 1.52203 29.3013
rtibia 38.939
rfoot 31.1452 -2.54119
rtoes -25.2756
lfemur -76.0767 6.95248 -21.1899
ltibia 72.3804
lfoot -10.2874 -15.9212
ltoes -14.8295
3
root -11.8682 15.766 39.8764 -155.435 -5.62323 -176.98
lowerback 16.3103 0.428597 6.43875
upperback 0.453891 1.71777 2.63628
thorax -8.57207 0.496921 -1.18457
lowerneck -17.3508 -4.89375 -4.07704
upperneck -3.33209 -6.57463 3.37629
head 2.17016 -3.47145 1.32339
rclavicle 2.50469e-014 7.15625e-014
rhumerus -38.5238 14.2801 -89.5223
rradius 101.703
rwrist -7.20673
rhand -21.949 5.9362
rfingers 7.12502
rthumb 4.45801 -23.9969
lclavicle 2.50469e-014 7.15625e-014
lhumerus -68.7635 -5.81333 95.9613
lradius 101.31
lwrist 15.4116
lhand -18.9035 -8.67843
lfingers 7.12502
lthumb 7.39831 21.1722
rfemur 0.711209 0.528992 29.2349
rtibia 45.9014
rfoot 29.5946 -2.9403
rtoes -22.7382
lfemur -73.5289 6.65939 -21.1479
ltibia 71.9003
lfoot -12.1054 -14.9004
ltoes -9.64365
4
root -11.8603 15.7625 39.382 -155.63 -5.77829 -177.401
lowerback 16.2458 0.348825 5.9722
upperback 0.622986 1.50596 2.56584
thorax -8.37408 0.422183 -0.95002
lowerneck -17.2615 -4.86153 -4.30753
upperneck -3.72714 -6.53017 3.71942
head 2.042 -3.45372 1.48601
rclavicle -1.59028e-015 -1.90833e-014
rhumerus -39.453 12.4297 -89.6566
rradius 97.7615
rwrist -7.52717
rhand -22.4949 5.19056
rfingers 7.12502
rthumb 3.93088 -24.7529
lclavicle -1.59028e-015 -1.90833e-014
lhumerus -66.083 -6.03323 96.584
lradius 100.333
lwrist 15.8791
lhand -19.5732 -8.84406
lfingers 7.12502
lthumb 6.75185 21.0283
rfemur -2.2331 -0.3051 28.9437
rtibia 52.143
rfoot 28.2789 -3.96794
rtoes -18.6936
lfemur -70.6783 6.44119 -21.3553
ltibia 71.6041
lfoot -15.3866 -11.0297
ltoes -14.1525
5
root -11.8627 15.8111 38.8632 -155.868 -5.83723 -178.913
lowerback 16.5755 0.0581001 4.70563
upperback 0.578275 0.921371 2.18133
thorax -8.65527 0.195968 -0.519674
lowerneck -16.9885 -4.66249 -3.96919
upperneck -3.9684 -6.34559 3.57277
head 1.88373 -3.37741 1.40079
rclavicle -6.75868e-015 -9.54166e-015
rhumerus -40.4707 10.4051 -89.8082
rradius 93.3294
rwrist -8.75326
rhand -23.0027 4.86262
rfingers 7.12502
rthumb 3.44053 -25.0894
lclavicle -6.75868e-015 -9.54166e-015
lhumerus -63.5077 -6.13648 97.114
lradius 99.5392
lwrist 15.9499
lhand -19.261 -8.64971
lfingers 7.12502
lthumb 7.05323 21.2128
rfemur -5.71706 -1.68389 27.3338
rtibia 58.2781
rfoot 25.509 -3.68767
rtoes -20.9158
lfemur -67.1463 5.76619 -22.7413
ltibia 71.153
lfoot -17.8476 -14.1449
ltoes -2.40858
6
root -11.8607 15.8085 38.3692 -156.024 -5.9744 -180.076
lowerback 16.7606 -0.14555 3.69412
upperback 0.605644 0.467749 1.90531
thorax -8.75367 0.0225588 -0.139603
lowerneck -16.8795 -4.56411 -3.90391
upperneck -4.22781 -6.25222 3.6816
head 1.775 -3.33996 1.43668
rclavicle 1.94809e-014 3.4191e-014
rhumerus -41.4075 8.36147 -89.6746
rradius 89.311
rwrist -9.33805
rhand -23.2132 4.35595
rfingers 7.12502
rthumb 3.23724 -25.5992
lclavicle 1.94809e-014 3.4191e-014
lhumerus -60.9002 -6.40307 97.6586
lradius 98.7814
lwrist 16.2289
lhand -19.5039 -8.80604
lfingers 7.12502
lthumb 6.81875 21.0642
rfemur -8.83582 -2.92381 26.1668
rtibia 64.1775
rfoot 23.2417 -3.77408
rtoes -21.0079
lfemur -64.147 5.17772 -23.7077
ltibia 70.6216
lfoot -20.1653 -13.3944
ltoes 0.441459
7
root -11.8613 15.7967 37.8804 -156.107 -6.06482 -181.473
lowerback 16.954 -0.366448 2.52023
upperback 0.589505 -0.0483481 1.54746
thorax -8.8937 -0.174676 0.263412
lowerneck -16.8114 -4.47023 -3.86034
upperneck -4.42482 -6.15685 3.83871
head 1.69795 -3.29797 1.49064
rclavicle 1.51076e-014 -2.46493e-014
rhumerus -42.4079 6.24212 -89.364
rradius 85.3624
rwrist -9.74941
rhand -23.4875 3.99391
rfingers 7.12502
rthumb 2.97227 -25.9651
lclavicle 1.51076e-014 -2.46493e-014
lhumerus -58.2707 -6.75498 98.1455
lradius 98.1704
lwrist 16.4719
lhand -19.6884 -8.99294
lfingers 7.12502
lthumb 6.64062 20.8829
rfemur -12.14 -4.22348 24.7009
rtibia 69.8922
rfoot 20.7238 -3.81401
rtoes -21.298
lfemur -61.1404 4.49512 -24.92
ltibia 69.9341
lfoot -22.4598 -12.5994
ltoes 3.11838
8
root -11.8644 15.7815 37.3959 -156.113 -6.12953 -182.992
lowerback 17.1504 -0.596388 1.29754
upperback 0.531208 -0.599469 1.14165
thorax -9.06721 -0.387395 0.65557
lowerneck -16.8072 -4.39336 -3.86318
upperneck -4.55814 -6.07258 4.0524
head 1.65846 -3.25779 1.56851
rclavicle 1.19271e-014 1.98785e-014
rhumerus -43.523 4.10354 -88.8522
rradius 81.5999
rwrist -9.87226
rhand -23.8062 3.83911
rfingers 7.12502
rthumb 2.66451 -26.124
lclavicle 1.19271e-014 1.98785e-014
lhumerus -55.6256 -7.19397 98.5775
lradius 97.7685
lwrist 16.6709
lhand -19.8456 -9.21455
lfingers 7.12502
lthumb 6.4889 20.666
rfemur -15.6578 -5.56469 23.0615
rtibia 75.3664
rfoot 17.9965 -3.78411
rtoes -22.0443
lfemur -58.1876 3.74691 -26.2296
ltibia 69.1383
lfoot -24.6199 -11.8523
ltoes 4.97661
9
root -11.8699 15.7628 36.9167 -156.034 -6.1923 -184.508
lowerback 17.3232 -0.830012 0.14345
upperback 0.431159 -1.15611 0.728754
thorax -9.2597 -0.605562 1.00621
lowerneck -16.8248 -4.34694 -3.90212
upperneck -4.67921 -6.02251 4.29451
head 1.63075 -3.23374 1.65917
rclavicle -2.42517e-014 -7.95139e-016
rhumerus -44.8021 2.02414 -88.1277
rradius 78.1403
rwrist -9.66002
rhand -24.1505 3.88315
rfingers 7.12502
rthumb 2.33198 -26.0838
lclavicle -2.42517e-014 -7.95139e-016
lhumerus -52.9837 -7.70558 98.9645
lradius 97.6453
lwrist 16.8231
lhand -20.0086 -9.46164
lfingers 7.12502
lthumb 6.33155 20.4237
rfemur -19.4201 -6.90942 21.4059
rtibia 80.5676
rfoot 15.1299 -3.72032
rtoes -22.9761
lfemur -55.367 2.96489 -27.4873
ltibia 68.2743
lfoot -26.555 -11.3142
ltoes 6.43889
10
root -11.8785 15.7405 36.4428 -155.879 -6.2749 -185.908
lowerback 17.4476 -1.06587 -0.818825
upperback 0.299431 -1.68793 0.341393
thorax -9.45172 -0.819278 1.27105
lowerneck -16.8744 -4.3328 -3.99158
upperneck -4.78567 -6.00635 4.55995
head 1.6178 -3.22552 1.76351
rclavicle 1.23246e-014 4.77083e-015
rhumerus -46.2887 0.08298 -87.2053
rradius 75.0936
rwrist -9.16981
rhand -24.522 4.11925
rfingers 7.12502
rthumb 1.97322 -25.8514
lclavicle 1.23246e-014 4.77083e-015
lhumerus -50.3701 -8.27473 99.3155
lradius 97.8736
lwrist 16.9291
lhand -20.1816 -9.71518
lfingers 7.12502
lthumb 6.16448 20.1751
rfemur -23.4315 -8.22479 19.8805
rtibia 85.417
rfoot 12.2277 -3.65996
rtoes -23.8637
lfemur -52.709 2.18408 -28.5718
ltibia 67.3737
lfoot -28.3162 -10.6329
ltoes 6.54709
11
root -11.8894 15.7142 35.9729 -155.673 -6.35666 -187.121
lowerback 17.4976 -1.28988 -1.56251
upperback 0.154827 -2.16332 0.00806197
thorax -9.61406 -1.01452 1.45529
lowerneck -16.9396 -4.34316 -4.11012
upperneck -4.89732 -6.01821 4.79783
head 1.60683 -3.23253 1.86199
rclavicle 1.90833e-014 -5.1684e-015
rhumerus -47.9924 -1.6178 -86.1186
rradius 72.5466
rwrist -8.577
rhand -24.8872 4.49545
rfingers 7.12502
rthumb 1.62048 -25.4781
lclavicle 1.90833e-014 -5.1684e-015
lhumerus -47.809 -8.86085 99.649
lradius 98.5164
lwrist 17.0061
lhand -20.3551 -9.93101
lfingers 7.12502
lthumb 5.99703 19.9641
rfemur -27.6699 -9.43052 18.5898
rtibia 89.8458
rfoot 9.36397 -3.63162
rtoes -24.6105
lfemur -50.1983 1.47048 -29.4226
ltibia 66.4697
lfoot -29.8267 -10.2656
ltoes 6.42868
12
root -11.9021 15.6856 35.5041 -155.441 -6.44358 -188.124
lowerback 17.4725 -1.50361 -2.0804
upperback 0.000442669 -2.57524 -0.256547
thorax -9.74768 -1.18789 1.56772
lowerneck -17.01 -4.3667 -4.23934
upperneck -5.00089 -6.04405 4.9675
head 1.59747 -3.24796 1.9389
rclavicle -4.92986e-014 -3.97569e-016
rhumerus -49.9167 -2.99763 -84.9272
rradius 70.536
rwrist -8.06212
rhand -25.218 5.00741
rfingers 7.12502
rthumb 1.30103 -24.9684
lclavicle -4.92986e-014 -3.97569e-016
lhumerus -45.3528 -9.42139 99.986
lradius 99.6152
lwrist 17.0757
lhand -20.4888 -10.0963
lfingers 7.12502
lthumb 5.86792 19.8024
rfemur -32.0913 -10.4883 17.5899
rtibia 93.7778
rfoot 6.60277 -3.6576
rtoes -25.2935
lfemur -47.7835 0.862471 -30.0327
ltibia 65.559
lfoot -31.1263 -10.1886
ltoes 6.10378
